<svg xmlns="http://www.w3.org/2000/svg" width="61.265" height="61.264" viewBox="0 0 61.265 61.264">
  <path id="Access_Playlist_" data-name="Access(Playlist)" d="M35.9,61.264H14.359A14.375,14.375,0,0,1,0,46.906V14.359A14.375,14.375,0,0,1,14.359,0H24.29a14.49,14.49,0,0,1,10.75,4.738,2.393,2.393,0,0,1-3.552,3.208,9.7,9.7,0,0,0-7.2-3.16H14.359a9.583,9.583,0,0,0-9.573,9.573V46.906a9.583,9.583,0,0,0,9.573,9.573H35.9a2.393,2.393,0,0,1,0,4.786ZM12.205,50.615a2.393,2.393,0,0,1-2.393-2.393V24.171A11.979,11.979,0,0,1,21.778,12.205H49.3A11.979,11.979,0,0,1,61.264,24.171v2.752a2.393,2.393,0,0,1-4.786,0V24.171A7.188,7.188,0,0,0,49.3,16.991H21.778A7.188,7.188,0,0,0,14.6,24.171V48.222A2.393,2.393,0,0,1,12.205,50.615Zm38.051,7.06h-1.4a10.97,10.97,0,0,1-9.8-5.983H29.6a12.281,12.281,0,0,1-8.58-3.537,5.158,5.158,0,0,1,0-7.285,12.282,12.282,0,0,1,8.58-3.537h9.458a10.97,10.97,0,0,1,9.8-5.983h1.4A11.021,11.021,0,0,1,61.264,42.359v4.308A11.021,11.021,0,0,1,50.256,57.675ZM29.6,42.119a7.461,7.461,0,0,0-5.211,2.15.34.34,0,0,0,0,.486,7.46,7.46,0,0,0,5.211,2.15H40.652a2.393,2.393,0,0,1,2.279,1.663,6.2,6.2,0,0,0,5.925,4.32h1.4a6.229,6.229,0,0,0,6.222-6.222V42.359a6.229,6.229,0,0,0-6.222-6.222h-1.4a6.2,6.2,0,0,0-5.925,4.32,2.393,2.393,0,0,1-2.279,1.663ZM49.9,47.5a2.991,2.991,0,1,1,2.991-2.991A2.995,2.995,0,0,1,49.9,47.5Z" fill="#fff"/>
</svg>
