<svg xmlns="http://www.w3.org/2000/svg" width="26.66" height="26.66" viewBox="0 0 26.66 26.66">
  <g id="Layer_3" data-name="Layer 3" transform="translate(0.047 0.046)">
    <path id="Path_71" data-name="Path 71" d="M28.173,20.187a.407.407,0,1,0-.64.5,4.83,4.83,0,0,1,1.033,3,4.879,4.879,0,1,1-2.252-4.112.407.407,0,1,0,.438-.686,5.7,5.7,0,1,0,1.423,1.294Z" transform="translate(-10.403 -10.397)" fill="#fff"/>
    <path id="Path_72" data-name="Path 72" d="M19.624,17.873a.42.42,0,0,1-.047-.529,7.444,7.444,0,0,0,.97-2.24l1.071.536c0,.05-.015.1-.015.151a1.669,1.669,0,1,0,.295-.942l-1.19-.6a7.611,7.611,0,0,0,.011-1.849,7.362,7.362,0,0,0-1.145-3.152l.943-.944a3.757,3.757,0,1,0-.588-.589l-.849.85a7.467,7.467,0,0,0-4.832-2.709c-.183-.023-.366-.037-.548-.047v-.9a1.664,1.664,0,1,0-.832,0v.905A7.438,7.438,0,0,0,8.292,7.709L6.639,6.055a3.752,3.752,0,1,0-.588.589L7.7,8.3a7.454,7.454,0,0,0-1.894,4.579h-.9a1.665,1.665,0,1,0,0,.833h.9c.01.182.024.365.047.548a7.371,7.371,0,0,0,1.479,3.567L6.05,19.111a3.757,3.757,0,1,0,.588.589l1.24-1.241a7.46,7.46,0,0,0,4.516,2.276,7.641,7.641,0,0,0,1.391.034l.277,1.111a1.657,1.657,0,1,0,.884-.26c-.03,0-.059.007-.089.009l-.241-.965a7.4,7.4,0,0,0,2.714-1.071.419.419,0,0,1,.528.047l6.605,6.609a1.245,1.245,0,0,0,.882.366.821.821,0,0,0,.1,0,1.251,1.251,0,0,0,.915-.52,1.284,1.284,0,0,0-.166-1.639Zm3.642-2.914a.833.833,0,1,1-.832.833A.832.832,0,0,1,23.266,14.959ZM22.85,2.471a2.914,2.914,0,1,1-2.912,2.914A2.913,2.913,0,0,1,22.85,2.471ZM3.716,24.949a2.914,2.914,0,1,1,2.912-2.914,2.913,2.913,0,0,1-2.912,2.914Zm12.063-1.665a.832.832,0,1,1-.832-.833A.832.832,0,0,1,15.779,23.284ZM12.451,3.3a.832.832,0,1,1,.832.833A.832.832,0,0,1,12.451,3.3ZM3.716,6.633A2.914,2.914,0,1,1,6.628,3.72,2.913,2.913,0,0,1,3.716,6.633ZM3.3,14.126a.833.833,0,1,1,.832-.833A.832.832,0,0,1,3.3,14.126ZM25.688,25.6a.416.416,0,0,1-.307.176.408.408,0,0,1-.328-.121l-6.6-6.609a1.233,1.233,0,0,0-.876-.365,1.273,1.273,0,0,0-.692.208,6.678,6.678,0,1,1,2-2,1.247,1.247,0,0,0,.158,1.569l6.572,6.577a.451.451,0,0,1,.079.565Z" transform="translate(0 0)" fill="#fff"/>
    <path id="Path_73" data-name="Path 73" d="M24,27.692v.726a1.235,1.235,0,0,0,.7,1.108,5.678,5.678,0,0,0,5.1,0,1.235,1.235,0,0,0,.7-1.108v-.726a3.256,3.256,0,0,0-2.026-3.009,1.626,1.626,0,1,0-2.454,0A3.256,3.256,0,0,0,24,27.692Zm2.44-4.066a.813.813,0,1,1,.813.813A.813.813,0,0,1,26.44,23.626Zm.813,1.626a2.442,2.442,0,0,1,2.44,2.44v.726a.418.418,0,0,1-.239.373,4.836,4.836,0,0,1-4.4,0,.418.418,0,0,1-.239-.373v-.726A2.442,2.442,0,0,1,27.253,25.253Z" transform="translate(-13.97 -12.772)" fill="#fff"/>
    <path id="Path_74" data-name="Path 74" d="M50.665,11.621a3.781,3.781,0,0,0,2.736,0,1.034,1.034,0,0,0,.665-.963A2.026,2.026,0,0,0,53.041,8.9a1.22,1.22,0,1,0-2.017,0A2.026,2.026,0,0,0,50,10.658,1.034,1.034,0,0,0,50.665,11.621Zm.961-3.4a.407.407,0,1,1,.407.407A.407.407,0,0,1,51.626,8.218Zm.407,1.22a1.22,1.22,0,0,1,1.22,1.22.216.216,0,0,1-.138.2h0a2.947,2.947,0,0,1-2.163,0,.216.216,0,0,1-.139-.2A1.22,1.22,0,0,1,52.033,9.438Z" transform="translate(-29.098 -4.179)" fill="#fff"/>
    <path id="Path_75" data-name="Path 75" d="M7.041,48.9a1.22,1.22,0,1,0-2.017,0A2.026,2.026,0,0,0,4,50.658a1.034,1.034,0,0,0,.665.963,3.781,3.781,0,0,0,2.736,0,1.034,1.034,0,0,0,.665-.963A2.026,2.026,0,0,0,7.041,48.9Zm-1.415-.685a.407.407,0,1,1,.407.407A.407.407,0,0,1,5.626,48.218Zm1.488,2.643h0a2.948,2.948,0,0,1-2.163,0,.216.216,0,0,1-.139-.2,1.22,1.22,0,0,1,2.44,0A.216.216,0,0,1,7.115,50.861Z" transform="translate(-2.401 -27.296)" fill="#fff"/>
    <path id="Path_76" data-name="Path 76" d="M7.041,4.9a1.22,1.22,0,1,0-2.017,0A2.026,2.026,0,0,0,4,6.658a1.034,1.034,0,0,0,.665.963,3.781,3.781,0,0,0,2.736,0,1.034,1.034,0,0,0,.665-.963A2.026,2.026,0,0,0,7.041,4.9ZM5.626,4.218a.407.407,0,1,1,.407.407A.407.407,0,0,1,5.626,4.218ZM7.115,6.861h0a2.947,2.947,0,0,1-2.163,0,.216.216,0,0,1-.139-.2,1.22,1.22,0,1,1,2.44,0A.216.216,0,0,1,7.115,6.861Z" transform="translate(-2.401 -1.806)" fill="#fff"/>
  </g>
</svg>
