<svg xmlns="http://www.w3.org/2000/svg" width="26.66" height="26.66" viewBox="0 0 26.66 26.66">
  <path id="Wishlist_Playlist_" data-name="Wishlist(Playlist)" d="M21.431,21.453h0a1.041,1.041,0,0,0-1.044,1.042,2.08,2.08,0,1,1-4.161,0,2.734,2.734,0,0,1,1.12-2.239,1.027,1.027,0,0,0,.467-1.162,1.048,1.048,0,0,0-1.016-.764H8.253c-.276-2.034-.7-4.1-1.1-6.1A44.679,44.679,0,0,1,5.972,4.165a.416.416,0,0,0,0-.066A2.085,2.085,0,0,1,8.05,2.083h10.3a4.139,4.139,0,0,0-.56,2.082c0,.431.018.87.057,1.382a1.041,1.041,0,0,0,1.037.962.715.715,0,0,0,.081,0,1.041,1.041,0,0,0,.957-1.117c-.035-.458-.051-.846-.051-1.223a2.08,2.08,0,0,1,4.161,0,2.755,2.755,0,0,1-.922,2.083h-.171a1.041,1.041,0,1,0,0,2.083h.522a1.044,1.044,0,0,0,.545-.154,4.825,4.825,0,0,0,2.109-4.012A4.17,4.17,0,0,0,21.963,0h-.015c-.044,0-.087,0-.131,0-.025,0-.048,0-.073,0H8.05A4.17,4.17,0,0,0,3.885,4.166a1.076,1.076,0,0,0,.006.109,47.115,47.115,0,0,0,1.218,8.367c.381,1.876.772,3.806,1.039,5.686H3.154a1.044,1.044,0,0,0-.545.154A4.824,4.824,0,0,0,.5,22.424c0,.023,0,.047,0,.07A4.17,4.17,0,0,0,4.666,26.66H18.315A4.171,4.171,0,0,0,22.471,22.5a1.041,1.041,0,0,0-1.04-1.043ZM4.666,24.577a2.085,2.085,0,0,1-2.082-2.031c0-.017,0-.034,0-.051a2.754,2.754,0,0,1,.922-2.083H14.6a4.815,4.815,0,0,0-.459,2.083,4.141,4.141,0,0,0,.559,2.083Zm21.58-9.5-5.7-5.717a1.044,1.044,0,0,0-.435-.261l-4.1-1.245A1.041,1.041,0,0,0,14.7,9.13l1.164,4.2a1.04,1.04,0,0,0,.267.458l5.695,5.7a3.124,3.124,0,1,0,4.419-4.416ZM17.214,10.4l2.037.619L23.1,14.877l-1.473,1.472L17.8,12.514Zm7.558,7.623a1.044,1.044,0,0,1-1.472,0l-.2-.2,1.473-1.473.2.2a1.044,1.044,0,0,1,0,1.473Zm0,0" transform="translate(-0.5)" fill="#fff"/>
</svg>
